# xmcd
#
# Track frame offsets: 
#        150
#        18366
#        40233
#        56125
#        71834
#        90619
#        108897
#        127736
#        144661
#        172815
#        194690
#
# Disc length: 2671 seconds
#
# Revision: 2
# Processed by: cddbd v1.5.2PL0 Copyright (c) Steve Scherf et al.
# Submitted via: ExactAudioCopy v0.99pb5
#
DISCID=950a6d0b
DTITLE=Vegeance - Crystal Eye
DYEAR=2012
DGENRE=Hard Rock
TTITLE0=Me And You
TTITLE1=Bad To The Bone
TTITLE2=Barbeque 
TTITLE3=Shock Me Now
TTITLE4=Five Knuckle Shuffle
TTITLE5=Desperate Women 
TTITLE6=Whole Lotta Metal 
TTITLE7=Promise Me
TTITLE8=Crystal Eye 
TTITLE9=Missing
TTITLE10=Jans End Piece 
EXTD=
EXTT0=
EXTT1=
EXTT2=
EXTT3=
EXTT4=
EXTT5=
EXTT6=
EXTT7=
EXTT8=
EXTT9=
EXTT10=
PLAYORDER=
